<svg class="svgicon" id="svg24" preserveAspectRatio="xMidYMid meet" xmlns="http://www.w3.org/2000/svg" viewBox="0 0 128 128"><rect x="0" y="0" width="128" height="128" style="fill: transparent" rx="50%" ry="50%"></rect><g transform="scale(0.6) translate(42.66666666666667, 42.66666666666667)"><path fill="#d02624" class="st0" d="M100.255,37.389c-0.776-1.066-1.59-2.105-2.454-3.098c-8.61-9.896-21.066-15.571-34.174-15.571 c-13.104,0-25.559,5.674-34.168,15.567c-0.865,0.994-1.68,2.034-2.456,3.102H100.255z"></path><path fill="#d02624" class="st0" d="M29.025,93.181c1.378,1.632,2.858,3.178,4.454,4.603c8.3,7.414,19.007,11.497,30.148,11.497 c11.717,0,22.831-4.458,31.296-12.554c1.172-1.122,2.281-2.309,3.325-3.546H29.025z"></path><path fill="#d02624" class="st0" d="M58.878,66.039l-2-5.879c-0.455-1.334-0.758-2.546-1.061-3.728h-0.062c-0.303,1.212-0.636,2.454-1.03,3.696 l-2,5.91H58.878z"></path><path fill="#d02624" class="st0" d="M110.957,65.204c-0.131-0.506-0.126-1.038,0.013-1.542l5.571-20.273H11.463l5.568,20.226 c0.139,0.504,0.143,1.035,0.013,1.542l-5.651,22.024h105.214L110.957,65.204z M92.299,62.766v2.182H84.36v7.364h8.849v2.212H81.723 V54.1h11.031v2.211H84.36v6.455H92.299z M78.786,72.312v2.212H67.421V54.1h2.637v18.212H78.786z M64.423,74.523h-2.817L59.423,68.1 h-7.242l-2.121,6.424h-2.728L54.272,54.1h3.182L64.423,74.523z M38.728,65.1c-3.333-1.182-5.394-2.909-5.394-5.788 c0-3.183,2.636-5.546,6.606-5.546c2.091,0,3.605,0.484,4.515,1l-0.728,2.152c-0.666-0.364-2.03-0.971-3.879-0.971 c-2.787,0-3.849,1.667-3.849,3.061c0,1.91,1.243,2.85,4.062,3.939c3.454,1.334,5.212,3,5.212,6.001 c0,3.151-2.333,5.879-7.151,5.879c-1.97,0-4.122-0.576-5.213-1.304l0.667-2.212c1.182,0.728,2.909,1.333,4.728,1.333 c2.697,0,4.272-1.424,4.272-3.484C42.577,67.251,41.486,66.16,38.728,65.1z"></path></g></svg>