<svg width="255" height="71" viewBox="0 0 255 71" fill="none" xmlns="http://www.w3.org/2000/svg" preserveAspectRatio="none"><path d="M234.693 0H20.318c-.781 0-1.553 0-2.333.004-.652.003-1.3.014-1.958.022a33.81 33.81 0 0 0-4.27.314c-1.41.199-2.776.574-4.051 1.113a13.906 13.906 0 0 0-3.45 2.092 11.453 11.453 0 0 0-2.51 2.877A10.414 10.414 0 0 0 .414 9.801a19.323 19.323 0 0 0-.382 3.553C.012 13.9.01 14.444 0 14.99v41.028c.01.55.013 1.085.032 1.636a19.35 19.35 0 0 0 .382 3.553 10.392 10.392 0 0 0 1.332 3.38 11.373 11.373 0 0 0 2.51 2.866 13.553 13.553 0 0 0 3.45 2.092c1.275.54 2.64.918 4.05 1.12 1.413.193 2.84.298 4.271.314.659.012 1.306.019 1.958.019.78.003 1.552.003 2.333.003h214.375c.766 0 1.545 0 2.31-.004.65 0 1.316-.006 1.965-.018a33.833 33.833 0 0 0 4.262-.314 16.6 16.6 0 0 0 4.066-1.12 13.548 13.548 0 0 0 3.446-2.092 11.701 11.701 0 0 0 2.518-2.866 10.398 10.398 0 0 0 1.32-3.38c.237-1.174.369-2.362.395-3.553.008-.551.008-1.085.008-1.636.017-.645.017-1.287.017-1.942V16.927c0-.65 0-1.295-.017-1.938 0-.544 0-1.09-.008-1.635a20.185 20.185 0 0 0-.395-3.553 10.437 10.437 0 0 0-1.32-3.379c-1.315-2.135-3.401-3.873-5.964-4.97A16.516 16.516 0 0 0 243.23.34a33.243 33.243 0 0 0-4.262-.314c-.649-.009-1.315-.019-1.965-.022C236.238 0 235.459 0 234.693 0z" fill="#A6A6A6"/><path d="M18.117 68.997c-.648 0-1.281-.007-1.925-.019a32.688 32.688 0 0 1-3.978-.286 14.48 14.48 0 0 1-3.527-.96 11.695 11.695 0 0 1-2.973-1.78 9.658 9.658 0 0 1-2.173-2.446 8.843 8.843 0 0 1-1.155-2.903 18.005 18.005 0 0 1-.355-3.284c-.013-.37-.031-1.6-.031-1.6V15.26s.019-1.212.031-1.568a17.94 17.94 0 0 1 .353-3.279 8.892 8.892 0 0 1 1.156-2.91 9.738 9.738 0 0 1 2.161-2.45 12.033 12.033 0 0 1 2.985-1.79 14.334 14.334 0 0 1 3.52-.953 32.423 32.423 0 0 1 3.992-.287L18.118 2h218.753l1.944.022c1.325.013 2.648.109 3.956.285 1.236.173 2.435.497 3.556.96 2.209.937 4.007 2.419 5.141 4.238.554.91.938 1.884 1.139 2.889.221 1.093.345 2.197.37 3.305.006.496.006 1.029.006 1.56.017.656.017 1.281.017 1.912v36.657c0 .636 0 1.257-.017 1.883 0 .57 0 1.092-.008 1.629a18.523 18.523 0 0 1-.364 3.246 8.866 8.866 0 0 1-1.149 2.925 9.96 9.96 0 0 1-2.162 2.427c-.87.725-1.876 1.33-2.979 1.791-1.118.466-2.315.79-3.55.963a32.298 32.298 0 0 1-3.979.286c-.624.012-1.276.019-1.91.019l-2.308.003-216.457-.003z" fill="#000"/><path d="M43.881 35.965a8.768 8.768 0 0 1 4.175-7.356 8.974 8.974 0 0 0-7.07-3.822c-2.976-.312-5.86 1.78-7.376 1.78-1.545 0-3.88-1.75-6.393-1.697a9.417 9.417 0 0 0-7.924 4.832c-3.426 5.933-.87 14.65 2.412 19.446 1.642 2.348 3.56 4.97 6.072 4.878 2.457-.102 3.375-1.567 6.341-1.567 2.94 0 3.8 1.567 6.362 1.508 2.637-.043 4.299-2.359 5.883-4.73a19.42 19.42 0 0 0 2.69-5.478 8.473 8.473 0 0 1-5.172-7.794zm-4.839-14.332a8.632 8.632 0 0 0 1.975-6.184 8.783 8.783 0 0 0-5.683 2.94 8.213 8.213 0 0 0-2.026 5.956 7.263 7.263 0 0 0 5.734-2.712zm35.902 26.449h-8.386l-2.014 5.947h-3.552l7.943-22h3.69l7.943 22h-3.612l-2.012-5.947zm-7.518-2.744h6.648l-3.277-9.65h-.092l-3.279 9.65zm30.296.671c0 4.984-2.667 8.187-6.693 8.187a5.438 5.438 0 0 1-5.047-2.806h-.076v7.944h-3.293V37.988H85.8v2.668h.06a5.69 5.69 0 0 1 5.108-2.836c4.07 0 6.754 3.218 6.754 8.189zm-3.384 0c0-3.248-1.678-5.382-4.238-5.382-2.516 0-4.208 2.18-4.208 5.382 0 3.232 1.692 5.396 4.208 5.396 2.56 0 4.238-2.12 4.238-5.396zm21.038 0c0 4.984-2.668 8.187-6.694 8.187a5.437 5.437 0 0 1-5.046-2.806h-.077v7.944h-3.292V37.988h3.187v2.668h.06a5.696 5.696 0 0 1 5.108-2.836c4.071 0 6.754 3.218 6.754 8.189zm-3.384 0c0-3.248-1.678-5.382-4.239-5.382-2.515 0-4.207 2.18-4.207 5.382 0 3.232 1.692 5.396 4.207 5.396 2.561 0 4.239-2.12 4.239-5.396zm15.052 1.889c.244 2.182 2.363 3.614 5.26 3.614 2.775 0 4.771-1.432 4.771-3.4 0-1.707-1.204-2.73-4.055-3.43l-2.851-.687c-4.04-.976-5.916-2.865-5.916-5.93 0-3.797 3.308-6.404 8.006-6.404 4.648 0 7.835 2.607 7.943 6.403h-3.324c-.199-2.195-2.014-3.52-4.666-3.52-2.652 0-4.467 1.34-4.467 3.292 0 1.555 1.159 2.47 3.995 3.171l2.423.595c4.514 1.068 6.39 2.88 6.39 6.099 0 4.116-3.279 6.694-8.493 6.694-4.879 0-8.173-2.518-8.386-6.497h3.37zm20.614-13.706v3.796h3.05v2.608h-3.05v8.842c0 1.374.611 2.014 1.952 2.014.362-.006.723-.032 1.083-.076v2.591a9.049 9.049 0 0 1-1.829.153c-3.247 0-4.514-1.22-4.514-4.33v-9.194h-2.332v-2.608h2.332v-3.796h3.308zm4.817 11.817c0-5.047 2.972-8.218 7.607-8.218 4.651 0 7.609 3.171 7.609 8.218 0 5.06-2.943 8.218-7.609 8.218-4.664 0-7.607-3.157-7.607-8.218zm11.862 0c0-3.462-1.587-5.505-4.255-5.505-2.667 0-4.252 2.059-4.252 5.505 0 3.476 1.585 5.504 4.252 5.504 2.668 0 4.255-2.028 4.255-5.504zm6.069-8.021h3.14v2.73h.076a3.827 3.827 0 0 1 3.858-2.898c.38 0 .758.04 1.128.123v3.08a4.602 4.602 0 0 0-1.479-.2 3.32 3.32 0 0 0-3.431 3.691v9.514h-3.292v-16.04zm23.382 11.329c-.443 2.912-3.278 4.91-6.906 4.91-4.666 0-7.563-3.126-7.563-8.142 0-5.031 2.912-8.294 7.424-8.294 4.438 0 7.229 3.048 7.229 7.912v1.128h-11.329v.199a4.17 4.17 0 0 0 1.132 3.245 4.176 4.176 0 0 0 3.183 1.298 3.628 3.628 0 0 0 3.704-2.256h3.126zm-11.13-4.787h8.019a3.856 3.856 0 0 0-3.934-4.071 4.065 4.065 0 0 0-2.89 1.184 4.058 4.058 0 0 0-1.195 2.887zM65.086 19.937H66.5a1.775 1.775 0 0 0 1.993-1.685c0-.975-.733-1.605-1.977-1.605a1.886 1.886 0 0 0-2.134 1.656H62.83a3.317 3.317 0 0 1 3.736-3.092c2.08 0 3.546 1.165 3.546 2.843a2.455 2.455 0 0 1-1.92 2.418v.124a2.462 2.462 0 0 1 2.351 2.556 3.532 3.532 0 0 1-3.948 3.143 3.513 3.513 0 0 1-3.97-3.128H64.2c.095 1.011 1.024 1.664 2.394 1.664s2.265-.733 2.265-1.766c0-1.048-.843-1.693-2.315-1.693h-1.459v-1.435zm7.248 3.846c0-1.436 1.07-2.264 2.967-2.381l2.161-.125v-.689c0-.842-.555-1.318-1.633-1.318-.88 0-1.486.323-1.663.887h-1.524c.16-1.37 1.452-2.25 3.261-2.25 2 0 3.128.996 3.128 2.681v5.451h-1.517v-1.12h-.125a2.684 2.684 0 0 1-2.396 1.252 2.41 2.41 0 0 1-2.659-2.388zm5.128-.681v-.668l-1.948.125c-1.099.074-1.597.447-1.597 1.15 0 .719.623 1.136 1.48 1.136a1.88 1.88 0 0 0 2.065-1.743zm5.748-3.715v6.652h-1.575v-7.978h5.252v1.326H83.21zm13.219 2.66c0 2.534-1.282 4.124-3.296 4.124a2.6 2.6 0 0 1-2.455-1.34h-.125v3.86H88.98v-10.63h1.516v1.319h.117a2.771 2.771 0 0 1 2.505-1.45c2.03 0 3.312 1.581 3.312 4.117zm-1.62 0c0-1.685-.797-2.703-2.131-2.703-1.325 0-2.154 1.04-2.154 2.71 0 1.663.829 2.703 2.147 2.703 1.34 0 2.138-1.018 2.138-2.71zm3.717 6.849v-1.355c.17.021.342.031.514.03a1.365 1.365 0 0 0 1.443-1.114l.117-.389-2.887-8.007h1.714l2 6.337h.125l1.993-6.337h1.67l-2.974 8.308c-.682 1.94-1.436 2.564-3.063 2.564-.131 0-.505-.015-.652-.037zm7.915-5.121h1.567c.154.704.814 1.07 1.736 1.07 1.048 0 1.692-.462 1.692-1.18 0-.769-.578-1.136-1.692-1.136h-1.194v-1.223h1.173c.951 0 1.436-.366 1.436-1.033 0-.585-.469-1.032-1.436-1.032-.881 0-1.524.373-1.626 1.003h-1.518a2.799 2.799 0 0 1 3.144-2.337c1.896 0 2.981.858 2.981 2.206a1.636 1.636 0 0 1-1.26 1.633v.124a1.791 1.791 0 0 1 1.561 1.795c0 1.517-1.291 2.52-3.261 2.52-1.743 0-3.158-.798-3.303-2.41zm8.831 2.264v-7.978h1.561v5.488h.125l3.676-5.488h1.561v7.978h-1.561v-5.516h-.118l-3.683 5.516h-1.561zm15.519-6.652h-2.512v6.652h-1.576v-6.652h-2.512V18.06h6.6v1.326zm8.481 4.498a3.24 3.24 0 0 1-3.458 2.308 3.624 3.624 0 0 1-3.685-4.118 3.683 3.683 0 0 1 2.148-3.848 3.677 3.677 0 0 1 1.53-.32c2.22 0 3.561 1.517 3.561 4.022v.55h-5.634v.088a2.102 2.102 0 0 0 .556 1.613 2.109 2.109 0 0 0 1.569.672 1.911 1.911 0 0 0 1.896-.967h1.517zm-5.538-2.57h4.028a1.919 1.919 0 0 0-1.179-1.92 1.927 1.927 0 0 0-.783-.147 2.037 2.037 0 0 0-2.066 2.066zm12.213-3.254h3.597c1.561 0 2.476.791 2.476 2.029a1.714 1.714 0 0 1-1.348 1.685v.125a1.82 1.82 0 0 1 1.706 1.839c0 1.392-1.047 2.3-2.798 2.3h-3.633v-7.978zm1.561 1.209v2.066h1.56c.952 0 1.407-.366 1.407-1.04 0-.623-.396-1.026-1.232-1.026h-1.735zm0 3.223v2.338h1.867c.93 0 1.429-.411 1.429-1.166 0-.798-.564-1.172-1.627-1.172h-1.669z" fill="#fff"/></svg>