<svg width="114" height="30" viewBox="0 0 114 30" fill="none" xmlns="http://www.w3.org/2000/svg" preserveAspectRatio="none"><path d="M.667 30H114V0H.667v30z" fill="#0060AF"/><path d="M75.772 19.712v-4.615c0-1.754 1.018-2.866 2.873-3.115.736-.102 1.106-.025 1.499.048l-.001-3.126c-2.666 0-3.929.682-4.499 2.597h-.043V9.31h-3.89v10.403l4.061-.002zm20.309-3.342c.712 2.969 3.584 3.866 7.267 3.866 2.882 0 5.942-1.072 5.942-3.942 0-4.341-8.766-2.693-8.766-4.488 0-.699 1.334-.881 1.991-.881.558.023 1.471.182 1.741.381.279.236.615.448.663.898h3.885c-.693-2.243-3.173-3.467-6.118-3.467-3.562 0-6.361 1.145-6.361 3.84 0 4.11 8.741 2.52 8.741 4.44 0 .814-1.388 1.012-2.258.974-.59-.026-1.351-.126-1.915-.522-.343-.175-.686-.67-.761-1.1h-4.05zM32.882 9.357v5.713c-.009 1.275-.836 2.503-2.341 2.503-1.5 0-2.347-1.245-2.347-2.614V9.357l-4.087.006v6.108c0 3.04 2.496 4.664 5.01 4.664 1.47 0 2.8-.523 3.836-1.572h.043v1.175h3.977V9.358h-4.091zm57.282-.08v5.713c-.007 1.275-.835 2.501-2.34 2.501-1.497 0-2.346-1.245-2.346-2.614v-5.6l-4.081-.016-.007 6.126c0 3.043 2.496 4.667 5.01 4.667 1.472 0 2.8-.522 3.838-1.574h.042v1.176h3.977V9.277h-4.093z" fill="#fff"/><path d="M90.164 9.277v5.713c-.007 1.275-.835 2.501-2.34 2.501-1.497 0-2.346-1.245-2.346-2.614v-5.6l-4.081-.016-.007 6.126c0 3.043 2.496 4.667 5.01 4.667 1.472 0 2.8-.522 3.838-1.574h.042v1.176h3.977V9.277h-4.093zM6.3 25.28h102.397v-1.13H6.3v1.131zm40.16-7.725c-1.724 0-3.122-1.373-3.122-3.066 0-1.694 1.398-3.067 3.123-3.067 1.724 0 3.122 1.373 3.122 3.067 0 1.693-1.398 3.066-3.122 3.066zM49.384 5.21v4.84c-1.034-.964-2.637-1.236-4.068-1.236-4.313.07-6.355 3.372-6.355 5.866 0 3.487 3.725 5.529 6.414 5.529 1.773 0 3.345-.538 4.085-1.64h.048v1.258h4.022V5.21h-4.146zm10.586 8.042c.189-1.225 1.16-2.195 2.673-2.195 1.484 0 2.481.97 2.644 2.195H59.97zm2.748-4.449c-4.216 0-7.25 2.021-7.25 5.91 0 3.664 3.394 5.552 7.2 5.552 2.879 0 5.564-1.1 6.67-3.496h-4.04c-.526.924-1.534 1.157-2.58 1.157-1.645 0-2.665-.885-2.819-2.48h9.863c.412-2.99-1.594-6.643-7.044-6.643zM14.11 17.065h-3.518v-3.444h4.527c1.634 0 2.28.575 2.28 1.82 0 1.126-.67 1.624-3.289 1.624zm-3.518-9.082h4.201c1.799 0 2.257.54 2.257 1.371 0 .915-.458 1.655-2.257 1.655h-4.2V7.983zm8.144 4.083c-.036.006-.069.018-.106.025l.02-.041c.03.003.056.012.086.016 1.877-.345 3.074-1.627 2.94-3.484-.098-1.36-.712-3.539-6.287-3.417H6.283v14.71l10.26-.019c4.028.05 5.747-2.094 5.756-4.223.008-1.821-1.375-3.263-3.563-3.567z" fill="#fff"/></svg>