<svg width="40" height="40" viewBox="0 0 40 40" fill="none" xmlns="http://www.w3.org/2000/svg" preserveAspectRatio="none"><path d="M20.229 27.55a1.249 1.249 0 0 0 0 1.759 1.249 1.249 0 0 0 1.758 0 1.249 1.249 0 0 0 0-1.759 1.234 1.234 0 0 0-1.758 0zm-6.159-5.063a1.249 1.249 0 0 0-1.76 0 1.249 1.249 0 0 0 0 1.759 1.249 1.249 0 0 0 1.76 0 1.249 1.249 0 0 0 0-1.759z" fill="#F2323F"/><path d="M33.906 2.536C33.52 1.603 32.343.033 28.76 0h-.115c-2.2 0-4.818.58-7.395 1.644-.474.196-.932.401-1.374.622l-.024-.025a3.798 3.798 0 0 0-5.293 0l-7.215 7.01a4.912 4.912 0 0 0-1.497 3.534v23.747A3.47 3.47 0 0 0 9.317 40h15.787a3.47 3.47 0 0 0 3.468-3.468V12.785c0-.679-.139-1.35-.409-1.955 1.53-.859 2.863-1.84 3.886-2.87 2.503-2.545 2.241-4.492 1.857-5.424zM10.184 23.37a3.01 3.01 0 0 1 3.002-3.002 3.01 3.01 0 0 1 3.002 3.002 3.01 3.01 0 0 1-3.002 3.002 3.01 3.01 0 0 1-3.002-3.002zm2.552 7.853a.737.737 0 0 1-.098-1.03l7.885-9.498a.737.737 0 0 1 1.03-.098c.312.262.353.72.1 1.03l-7.886 9.498a.737.737 0 0 1-1.031.098zm8.376.213a3.01 3.01 0 0 1-3.002-3.003 3.01 3.01 0 0 1 3.002-3.002 3.01 3.01 0 0 1 3.002 3.002 3.01 3.01 0 0 1-3.002 3.003zm3.33-22.054c-1.506.622-3.052 1.064-4.459 1.277 0 .065.008.122.008.188a2.87 2.87 0 0 1-2.87 2.87 2.87 2.87 0 0 1-2.872-2.87 2.87 2.87 0 0 1 5.178-1.71 20.223 20.223 0 0 0 4.188-1.227c.5-.204.966-.417 1.407-.638L22.127 4.45c.081-.033.163-.066.245-.106 2.2-.908 4.483-1.424 6.282-1.424h.082c1.726.017 2.372.483 2.47.728.303.753-1.62 3.616-6.765 5.734z" fill="#F2323F"/></svg>