<svg width="20" height="20" viewBox="0 0 20 20" fill="none" xmlns="http://www.w3.org/2000/svg" preserveAspectRatio="none"><path d="M17.07 2.93A9.929 9.929 0 0 0 10 0a9.93 9.93 0 0 0-7.07 2.93A9.93 9.93 0 0 0 0 10a9.929 9.929 0 0 0 2.93 7.07A9.93 9.93 0 0 0 10 20a9.93 9.93 0 0 0 7.07-2.93A9.93 9.93 0 0 0 20 10a9.93 9.93 0 0 0-2.93-7.07zm-.803 13.337A8.806 8.806 0 0 1 10 18.864a8.806 8.806 0 0 1-6.267-2.597C.278 12.81.278 7.189 3.733 3.733A8.806 8.806 0 0 1 10 1.136c2.365 0 4.592.922 6.267 2.597 3.455 3.456 3.455 9.078 0 12.534z" fill="#404145"/><path d="M14.407 5.594a.567.567 0 0 0-.804 0L10 9.196 6.397 5.594a.566.566 0 0 0-.803 0 .566.566 0 0 0 0 .803L9.196 10l-3.602 3.603a.572.572 0 1 0 .4.972.56.56 0 0 0 .4-.168l3.602-3.603 3.603 3.603c.109.11.256.168.4.168.147 0 .29-.055.4-.168a.567.567 0 0 0 0-.804L10.803 10l3.603-3.603a.566.566 0 0 0 0-.803z" fill="#404145"/></svg>