<svg width="20" height="20" viewBox="0 0 20 20" fill="none" xmlns="http://www.w3.org/2000/svg" preserveAspectRatio="none"><path d="M17.07 2.93A9.929 9.929 0 0 0 10 0a9.93 9.93 0 0 0-7.07 2.93A9.93 9.93 0 0 0 0 10a9.929 9.929 0 0 0 2.93 7.07A9.93 9.93 0 0 0 10 20a9.93 9.93 0 0 0 7.07-2.93A9.93 9.93 0 0 0 20 10a9.93 9.93 0 0 0-2.93-7.07z" fill="#0060AF"/><path d="M10 3.768a.566.566 0 0 0-.569.569v5.095H4.336a.566.566 0 0 0-.568.568c0 .316.253.568.568.568h5.095v5.095a.572.572 0 1 0 .97.405.555.555 0 0 0 .164-.402v-5.095h5.095c.155 0 .3-.062.402-.163a.547.547 0 0 0 .164-.402.567.567 0 0 0-.569-.568l-5.089-.006V4.337A.566.566 0 0 0 10 3.768z" fill="#fff"/></svg>