<svg width="255" height="71" viewBox="0 0 255 71" fill="none" xmlns="http://www.w3.org/2000/svg" preserveAspectRatio="none"><path d="M245.556 0H9.444C4.228 0 0 3.973 0 8.875v53.25C0 67.026 4.228 71 9.444 71h236.112c5.216 0 9.444-3.974 9.444-8.875V8.875C255 3.973 250.772 0 245.556 0z" fill="#000"/><path d="M245.556 1.42c2.104 0 4.121.785 5.609 2.184 1.488 1.398 2.324 3.294 2.324 5.271v53.25c0 1.977-.836 3.873-2.324 5.272-1.488 1.398-3.505 2.183-5.609 2.183H9.444c-2.104 0-4.121-.785-5.61-2.183-1.487-1.399-2.323-3.295-2.323-5.272V8.875c0-1.977.836-3.873 2.324-5.271C5.323 2.205 7.34 1.42 9.445 1.42h236.111zm0-1.42H9.444C6.94 0 4.537.935 2.766 2.6.995 4.263 0 6.52 0 8.874v53.25c0 2.354.995 4.611 2.766 6.276S6.94 71 9.444 71h236.112c2.504 0 4.907-.935 6.678-2.6 1.771-1.664 2.766-3.921 2.766-6.275V8.875c0-2.354-.995-4.611-2.766-6.276C250.463.935 248.06 0 245.556 0z" fill="#A6A6A6"/><path d="M128.709 38.606a8.416 8.416 0 0 0-4.467 1.284 7.678 7.678 0 0 0-2.955 3.4 7.129 7.129 0 0 0-.447 4.37 7.432 7.432 0 0 0 2.211 3.867 8.222 8.222 0 0 0 4.126 2.06 8.526 8.526 0 0 0 4.648-.44 7.955 7.955 0 0 0 3.604-2.793 7.246 7.246 0 0 0 1.346-4.204 7.042 7.042 0 0 0-.584-2.912 7.41 7.41 0 0 0-1.747-2.467 7.97 7.97 0 0 0-2.633-1.63 8.368 8.368 0 0 0-3.102-.535zm0 12.123a5.129 5.129 0 0 1-2.794-.611 4.697 4.697 0 0 1-1.943-1.983 4.33 4.33 0 0 1-.42-2.666 4.475 4.475 0 0 1 1.249-2.427 4.953 4.953 0 0 1 2.485-1.346 5.169 5.169 0 0 1 2.861.201 4.83 4.83 0 0 1 2.244 1.679c.552.758.849 1.655.851 2.574a4.113 4.113 0 0 1-.276 1.712 4.339 4.339 0 0 1-.962 1.476c-.423.427-.932.77-1.498 1.009a4.9 4.9 0 0 1-1.797.382zm-17.604-12.123a8.417 8.417 0 0 0-4.468 1.284 7.684 7.684 0 0 0-2.955 3.4 7.144 7.144 0 0 0-.447 4.37 7.434 7.434 0 0 0 2.212 3.867 8.223 8.223 0 0 0 4.125 2.06 8.525 8.525 0 0 0 4.648-.44 7.963 7.963 0 0 0 3.605-2.793 7.238 7.238 0 0 0 1.345-4.204 7.04 7.04 0 0 0-.583-2.912 7.44 7.44 0 0 0-1.747-2.467 7.974 7.974 0 0 0-2.634-1.63 8.363 8.363 0 0 0-3.101-.535zm0 12.123a5.127 5.127 0 0 1-2.794-.611 4.705 4.705 0 0 1-1.944-1.983 4.336 4.336 0 0 1-.42-2.666 4.475 4.475 0 0 1 1.249-2.427 4.952 4.952 0 0 1 2.486-1.346 5.165 5.165 0 0 1 2.86.201c.911.335 1.693.92 2.245 1.679.552.758.849 1.655.851 2.574a4.146 4.146 0 0 1-.276 1.712 4.327 4.327 0 0 1-.963 1.476 4.65 4.65 0 0 1-1.497 1.009 4.9 4.9 0 0 1-1.797.382zm-20.93-9.798v3.195h8.16c-.127 1.505-.793 2.925-1.888 4.03a8.408 8.408 0 0 1-2.89 1.8 8.83 8.83 0 0 1-3.42.543c-2.404 0-4.71-.898-6.41-2.496-1.7-1.598-2.656-3.765-2.656-6.024 0-2.26.956-4.427 2.656-6.025 1.7-1.598 4.006-2.495 6.41-2.495 2.306-.033 4.532.79 6.197 2.29l2.398-2.255a11.995 11.995 0 0 0-3.931-2.425 12.576 12.576 0 0 0-4.625-.805 13.21 13.21 0 0 0-4.925.758 12.618 12.618 0 0 0-4.216 2.51 11.742 11.742 0 0 0-2.833 3.86 11.126 11.126 0 0 0-.997 4.596c0 1.579.339 3.142.997 4.595a11.743 11.743 0 0 0 2.833 3.86 12.618 12.618 0 0 0 4.216 2.51c1.57.562 3.245.82 4.925.758 1.615.061 3.227-.2 4.727-.766a11.535 11.535 0 0 0 3.98-2.517c1.984-2.048 3.041-4.741 2.947-7.509.007-.666-.05-1.331-.17-1.988H90.176zm85.586 2.485a7.141 7.141 0 0 0-2.641-3.41 7.87 7.87 0 0 0-4.234-1.4 7.974 7.974 0 0 0-3.005.58 7.574 7.574 0 0 0-2.512 1.654 7.048 7.048 0 0 0-1.605 2.456 6.711 6.711 0 0 0-.434 2.854 7.21 7.21 0 0 0 1.545 4.509c1.02 1.307 2.462 2.269 4.111 2.742a8.474 8.474 0 0 0 5.039-.116c1.623-.549 3.013-1.576 3.963-2.928l-2.739-1.775a4.432 4.432 0 0 1-1.68 1.532 4.782 4.782 0 0 1-2.268.544 4.264 4.264 0 0 1-2.323-.578 3.897 3.897 0 0 1-1.568-1.711l10.748-4.172-.397-.78zm-10.955 2.52a3.91 3.91 0 0 1 .233-1.626 4.095 4.095 0 0 1 .885-1.415 4.409 4.409 0 0 1 1.399-.982 4.653 4.653 0 0 1 1.695-.396c.609-.035 1.215.1 1.742.387.528.288.953.715 1.223 1.228l-7.177 2.805zm-8.727 7.314h3.532V31.062h-3.532V53.25zm-5.78-12.958h-.132a5.551 5.551 0 0 0-1.909-1.322 5.863 5.863 0 0 0-2.322-.453c-2.065.094-4.011.931-5.437 2.337-1.425 1.407-2.22 3.274-2.22 5.216 0 1.942.795 3.81 2.22 5.216 1.426 1.406 3.372 2.243 5.437 2.337a5.737 5.737 0 0 0 2.326-.443 5.426 5.426 0 0 0 1.905-1.332h.132v1.082c0 2.894-1.643 4.438-4.288 4.438a4.653 4.653 0 0 1-2.464-.76 4.239 4.239 0 0 1-1.597-1.92l-3.06 1.189a7.205 7.205 0 0 0 2.821 3.276 7.907 7.907 0 0 0 4.3 1.197c4.137 0 7.556-2.29 7.556-7.863V39.05h-3.268v1.242zm-4.061 10.437a5.006 5.006 0 0 1-3.248-1.434 4.435 4.435 0 0 1-1.322-3.136c0-1.165.473-2.287 1.322-3.136a5.006 5.006 0 0 1 3.248-1.435 4.75 4.75 0 0 1 1.745.408 4.49 4.49 0 0 1 1.437 1.015c.402.426.709.923.902 1.462.193.54.269 1.11.223 1.677a3.994 3.994 0 0 1-.212 1.685 4.179 4.179 0 0 1-.899 1.47 4.494 4.494 0 0 1-1.443 1.02 4.733 4.733 0 0 1-1.753.404zm46.07-19.666h-8.462V53.25h3.532v-8.414h4.93a7.783 7.783 0 0 0 2.969-.375 7.44 7.44 0 0 0 2.563-1.457 6.924 6.924 0 0 0 1.731-2.298c.403-.87.611-1.808.611-2.757a6.55 6.55 0 0 0-.611-2.756 6.925 6.925 0 0 0-1.731-2.298 7.44 7.44 0 0 0-2.563-1.458 7.783 7.783 0 0 0-2.969-.375zm0 10.65h-4.93V34.15h5.005c.531 0 1.057.098 1.547.29.491.19.936.47 1.312.822.375.353.673.772.876 1.233a3.6 3.6 0 0 1 .308 1.453c0 .5-.105.993-.308 1.454-.203.46-.501.88-.876 1.232a4.073 4.073 0 0 1-1.312.824c-.49.19-1.016.289-1.547.289l-.075-.036zm21.798-3.178a6.937 6.937 0 0 0-3.686.81 6.376 6.376 0 0 0-2.604 2.58l3.116 1.225c.315-.533.788-.97 1.361-1.256a3.544 3.544 0 0 1 1.869-.36 3.628 3.628 0 0 1 1.337.105c.434.117.838.315 1.19.58.351.267.643.596.858.969.215.373.349.782.393 1.205v.213a8.304 8.304 0 0 0-3.683-.852c-3.362 0-6.8 1.775-6.8 5.005.033.687.213 1.36.528 1.98a5.18 5.18 0 0 0 1.309 1.63 5.556 5.556 0 0 0 1.881 1.02 5.788 5.788 0 0 0 2.156.251c.887.046 1.77-.13 2.56-.51a4.91 4.91 0 0 0 1.936-1.655h.113v1.775h3.4v-8.538c0-3.887-3.135-6.141-7.159-6.141l-.075-.036zm-.435 12.159c-1.152 0-2.758-.55-2.758-1.882 0-1.775 2.003-2.378 3.778-2.378a6.593 6.593 0 0 1 3.211.745 3.933 3.933 0 0 1-1.369 2.508 4.422 4.422 0 0 1-2.786 1.042l-.076-.035zm20.06-11.644l-4.042 9.62h-.113l-4.194-9.62h-3.777l6.29 13.454-3.589 7.473h3.683l9.671-20.927h-3.929zm-31.733 14.2h3.513V31.062h-3.513V53.25z" fill="#fff"/><path d="M19.72 13.383a3.416 3.416 0 0 0-.888 2.485v39.263a3.314 3.314 0 0 0 .888 2.485l.132.142 23.404-21.992v-.532L19.852 13.259l-.132.124z" fill="url(#paint0_linear)"/><path d="M51 43.097l-7.745-7.331v-.532L51 27.903l.17.106 9.274 4.935c2.645 1.402 2.645 3.71 0 5.13l-9.236 4.934-.208.089z" fill="url(#paint1_linear)"/><path d="M51.227 42.99l-7.971-7.49L19.72 57.616a3.17 3.17 0 0 0 1.931.726 3.193 3.193 0 0 0 1.98-.602l27.596-14.75z" fill="url(#paint2_linear)"/><path d="M51.227 28.01L23.63 13.277a3.17 3.17 0 0 0-1.975-.616 3.15 3.15 0 0 0-1.935.723L43.256 35.5l7.97-7.49z" fill="url(#paint3_linear)"/><path opacity=".2" d="M51 42.83L23.63 57.475a3.27 3.27 0 0 1-1.889.595 3.27 3.27 0 0 1-1.889-.595l-.132.124.132.142a3.27 3.27 0 0 0 1.89.595 3.27 3.27 0 0 0 1.888-.595l27.597-14.75-.227-.16z" fill="#000"/><path opacity=".12" d="M19.72 57.368a3.407 3.407 0 0 1-.831-2.503v.266a3.314 3.314 0 0 0 .887 2.485l.133-.124-.19-.124zm40.724-19.561L51 42.83l.17.16 9.274-4.934a3.281 3.281 0 0 0 1.375-1.02 3 3 0 0 0 .628-1.536 3.223 3.223 0 0 1-.709 1.378c-.348.4-.79.719-1.294.93z" fill="#000"/><path opacity=".25" d="M23.63 13.525l36.815 19.667a3.5 3.5 0 0 1 1.293.93c.348.4.59.873.709 1.378a3 3 0 0 0-.628-1.536 3.282 3.282 0 0 0-1.374-1.02L23.63 13.277c-2.625-1.42-4.797-.249-4.797 2.591v.267c.056-2.84 2.172-4.012 4.797-2.61z" fill="#fff"/><path d="M79.541 25.329h-1.379v-3.55h1.171a4.981 4.981 0 0 0 1.162-1.872 4.753 4.753 0 0 0 .217-2.157v-5.325h7.556v9.336h1.265v3.55h-1.398v-2.236h-8.594v2.254zm2.626-7.58a6.767 6.767 0 0 1-1.077 4.065h5.666v-8.076h-4.59v4.012zm18.718 3.941c-.544.513-1.19.92-1.901 1.197a6.184 6.184 0 0 1-2.245.42c-.77 0-1.533-.142-2.244-.42a5.894 5.894 0 0 1-1.902-1.197c-1.08-1.06-1.684-2.472-1.684-3.94s.603-2.88 1.684-3.94a5.895 5.895 0 0 1 1.902-1.197 6.182 6.182 0 0 1 2.244-.42c.77 0 1.533.142 2.245.42a5.893 5.893 0 0 1 1.901 1.197 5.434 5.434 0 0 1 1.264 1.81c.289.677.431 1.401.417 2.13a5.033 5.033 0 0 1-.404 2.134 5.309 5.309 0 0 1-1.277 1.806zm-7.234-.887c.398.388.876.696 1.406.903a4.43 4.43 0 0 0 1.673.304 4.37 4.37 0 0 0 1.674-.299 4.153 4.153 0 0 0 1.405-.908 4.36 4.36 0 0 0 1.267-3.053 4.36 4.36 0 0 0-1.267-3.053 4.155 4.155 0 0 0-1.405-.908 4.37 4.37 0 0 0-1.674-.299 4.431 4.431 0 0 0-1.673.303 4.213 4.213 0 0 0-1.406.904 4.41 4.41 0 0 0-1.248 3.053 4.41 4.41 0 0 0 1.248 3.053zm16.245 2.503a5.992 5.992 0 0 1-2.231-.395 5.715 5.715 0 0 1-1.887-1.185c-1.09-1.07-1.698-2.495-1.698-3.976 0-1.482.608-2.906 1.698-3.976a5.719 5.719 0 0 1 1.922-1.2 5.994 5.994 0 0 1 2.272-.38 5.481 5.481 0 0 1 2.296.436 5.17 5.17 0 0 1 1.859 1.34l-1.001.922a3.747 3.747 0 0 0-1.4-1.044 3.99 3.99 0 0 0-1.754-.323 4.491 4.491 0 0 0-1.699.29 4.272 4.272 0 0 0-1.437.9 4.41 4.41 0 0 0-1.264 3.07 4.41 4.41 0 0 0 1.264 3.071c.408.39.897.696 1.437.9a4.487 4.487 0 0 0 1.699.29 4.69 4.69 0 0 0 1.867-.441 4.421 4.421 0 0 0 1.495-1.14l1.02.941a5.642 5.642 0 0 1-1.889 1.385 6.157 6.157 0 0 1-2.569.515zm10.389-.232h-1.455v-9.336h-3.173v-1.313h7.782v1.313h-3.154v9.336zm13.165-10.649l-4.288 8.981a2.52 2.52 0 0 1-.545.98 2.736 2.736 0 0 1-.933.675 2.893 2.893 0 0 1-2.3.014l.378-1.26c.231.121.49.188.755.195.28.013.557-.055.794-.196.229-.18.405-.412.51-.674l.415-.852-3.778-7.863h1.719l2.796 6.106 2.758-6.106h1.719zm1.644 10.649v-10.65h8.198v10.65h-1.455v-9.336h-5.289v9.336h-1.454zm10.785 0v-10.65h1.454v4.562H153v-4.561h1.473v10.65H153v-4.81h-5.667v4.81h-1.454zm20.457-1.384a5.92 5.92 0 0 1-1.907 1.198 6.201 6.201 0 0 1-2.249.421 6.201 6.201 0 0 1-2.249-.42 5.905 5.905 0 0 1-1.906-1.198c-1.081-1.061-1.684-2.473-1.684-3.94 0-1.47.603-2.88 1.684-3.941a5.895 5.895 0 0 1 1.901-1.197 6.184 6.184 0 0 1 2.245-.42c.77 0 1.533.142 2.244.42a5.89 5.89 0 0 1 1.902 1.197c1.072 1.064 1.669 2.474 1.669 3.94 0 1.466-.597 2.876-1.669 3.94h.019zm-7.235-.887c.396.391.874.7 1.405.908.53.208 1.1.31 1.674.3a4.431 4.431 0 0 0 1.673-.304 4.208 4.208 0 0 0 1.406-.904 4.411 4.411 0 0 0 1.248-3.053 4.41 4.41 0 0 0-1.248-3.053 4.207 4.207 0 0 0-1.406-.903 4.43 4.43 0 0 0-1.673-.304 4.367 4.367 0 0 0-1.674.299 4.148 4.148 0 0 0-1.405.908 4.362 4.362 0 0 0-1.267 3.053c0 1.131.452 2.22 1.267 3.053zm14.846 2.272v-10.65h4.099a3.53 3.53 0 0 1 2.305.816c.315.258.567.577.737.936.169.359.253.748.245 1.141.004.478-.14.947-.416 1.349a2.631 2.631 0 0 1-1.114.87 2.973 2.973 0 0 1 1.379.923c.347.435.533.965.529 1.509a2.66 2.66 0 0 1-.253 1.19 2.823 2.823 0 0 1-.767.975 3.586 3.586 0 0 1-2.418.87l-4.326.07zm1.455-6.088h2.644c.248.013.495-.026.724-.115.229-.09.434-.226.598-.4a1.55 1.55 0 0 0 .51-1.119 1.59 1.59 0 0 0-.434-1.153 1.615 1.615 0 0 0-.573-.382 1.701 1.701 0 0 0-.693-.115h-2.72l-.056 3.284zm0 4.774h2.946c.256.008.511-.037.746-.132s.445-.238.614-.418a1.71 1.71 0 0 0 .51-1.207 1.725 1.725 0 0 0-.528-1.19 1.908 1.908 0 0 0-.647-.415 1.992 1.992 0 0 0-.77-.134h-2.871v3.496z" fill="#fff" stroke="#fff" stroke-width=".2" stroke-miterlimit="10"/><defs><linearGradient id="paint0_linear" x1="41.178" y1="15.46" x2="11.451" y2="47.094" gradientUnits="userSpaceOnUse"><stop stop-color="#00A0FF"/><stop offset=".01" stop-color="#00A1FF"/><stop offset=".26" stop-color="#00BEFF"/><stop offset=".51" stop-color="#00D2FF"/><stop offset=".76" stop-color="#00DFFF"/><stop offset="1" stop-color="#00E3FF"/></linearGradient><linearGradient id="paint1_linear" x1="63.901" y1="35.5" x2="18.209" y2="35.5" gradientUnits="userSpaceOnUse"><stop stop-color="#FFE000"/><stop offset=".41" stop-color="#FFBD00"/><stop offset=".78" stop-color="orange"/><stop offset="1" stop-color="#FF9C00"/></linearGradient><linearGradient id="paint2_linear" x1="46.901" y1="39.565" x2="6.581" y2="82.473" gradientUnits="userSpaceOnUse"><stop stop-color="#FF3A44"/><stop offset="1" stop-color="#C31162"/></linearGradient><linearGradient id="paint3_linear" x1="13.789" y1=".302" x2="31.788" y2="19.456" gradientUnits="userSpaceOnUse"><stop stop-color="#32A071"/><stop offset=".07" stop-color="#2DA771"/><stop offset=".48" stop-color="#15CF74"/><stop offset=".8" stop-color="#06E775"/><stop offset="1" stop-color="#00F076"/></linearGradient></defs></svg>