<svg width="25" height="25" viewBox="0 0 25 25" fill="none" xmlns="http://www.w3.org/2000/svg" preserveAspectRatio="none"><path fill-rule="evenodd" clip-rule="evenodd" d="M12.5 0C5.596 0 0 5.596 0 12.5S5.596 25 12.5 25 25 19.404 25 12.5 19.404 0 12.5 0zM9.752 5.874c.71-.033.938-.04 2.748-.04h-.002c1.812 0 2.038.007 2.75.04.709.032 1.194.144 1.619.31.438.17.81.397 1.18.768.371.37.599.743.77 1.181.163.424.276.908.31 1.618.031.711.04.939.04 2.75 0 1.81-.009 2.036-.04 2.747-.034.71-.146 1.194-.31 1.618-.171.439-.399.81-.77 1.181-.37.371-.742.6-1.18.77-.424.165-.91.277-1.619.31-.711.032-.938.04-2.748.04-1.81 0-2.038-.008-2.749-.04-.71-.033-1.194-.145-1.618-.31a3.264 3.264 0 0 1-1.18-.77 3.266 3.266 0 0 1-.77-1.18c-.164-.425-.277-.909-.31-1.619-.032-.71-.04-.937-.04-2.748 0-1.81.009-2.038.04-2.749.032-.71.145-1.194.31-1.618a3.27 3.27 0 0 1 .77-1.18c.37-.372.742-.6 1.18-.77.424-.165.909-.277 1.619-.31z" fill="#BABDC2"/><path fill-rule="evenodd" clip-rule="evenodd" d="M11.903 7.035h.598c1.78 0 1.99.006 2.694.038.65.03 1.002.138 1.237.23.312.12.533.265.767.498.233.234.377.456.498.767.092.235.2.587.23 1.237.032.703.039.914.039 2.694 0 1.779-.007 1.99-.039 2.693-.03.65-.138 1.002-.23 1.237-.12.311-.265.533-.498.766a2.062 2.062 0 0 1-.767.499c-.234.091-.587.2-1.237.23-.703.031-.914.038-2.694.038-1.78 0-1.991-.007-2.694-.039-.65-.03-1.003-.138-1.238-.23a2.066 2.066 0 0 1-.767-.498 2.067 2.067 0 0 1-.499-.766c-.09-.235-.2-.588-.23-1.238-.031-.703-.038-.914-.038-2.694 0-1.78.007-1.99.039-2.693.03-.65.138-1.003.23-1.238.12-.311.265-.533.498-.767A2.07 2.07 0 0 1 8.57 7.3c.235-.091.588-.2 1.238-.23.615-.027.853-.036 2.096-.037v.002zm4.156 1.107a.8.8 0 1 0 0 1.6.8.8 0 0 0 0-1.6zM9.078 12.5a3.424 3.424 0 1 1 6.848 0 3.424 3.424 0 0 1-6.848 0z" fill="#BABDC2"/><path fill-rule="evenodd" clip-rule="evenodd" d="M12.5 10.278a2.222 2.222 0 1 1 0 4.444 2.222 2.222 0 0 1 0-4.444z" fill="#BABDC2"/></svg>