<svg width="20" height="20" viewBox="0 0 20 20" fill="none" xmlns="http://www.w3.org/2000/svg" preserveAspectRatio="none"><path fill-rule="evenodd" clip-rule="evenodd" d="M10 0C4.477 0 0 4.477 0 10s4.477 10 10 10 10-4.477 10-10S15.523 0 10 0zM7.801 4.699c.57-.026.75-.032 2.2-.032h-.002c1.449 0 1.63.006 2.199.032.567.026.955.116 1.295.248.351.136.648.318.945.615.296.296.478.594.615.945.131.339.221.726.248 1.294.025.569.032.75.032 2.2 0 1.448-.007 1.629-.032 2.198-.027.567-.117.955-.248 1.294a2.624 2.624 0 0 1-.615.945 2.61 2.61 0 0 1-.945.616c-.339.131-.727.221-1.295.247-.569.026-.75.033-2.198.033-1.449 0-1.63-.007-2.2-.033-.567-.026-.955-.116-1.294-.247a2.612 2.612 0 0 1-.944-.616 2.613 2.613 0 0 1-.615-.945c-.132-.339-.222-.726-.248-1.294-.026-.57-.032-.75-.032-2.199 0-1.448.006-1.63.032-2.2.025-.567.115-.954.247-1.294.137-.35.32-.648.616-.944.296-.297.594-.479.945-.615.339-.132.726-.222 1.294-.248z" fill="#fff"/><path fill-rule="evenodd" clip-rule="evenodd" d="M9.522 5.628h.479c1.424 0 1.593.005 2.155.03.52.025.802.112.99.185.249.096.426.212.613.399.187.186.302.364.4.613.072.188.16.47.183.99.025.562.03.731.03 2.154 0 1.424-.005 1.593-.03 2.155-.024.52-.11.802-.184.99a1.65 1.65 0 0 1-.4.613 1.648 1.648 0 0 1-.612.398c-.188.074-.47.16-.99.184-.562.026-.731.031-2.155.031s-1.593-.005-2.155-.03c-.52-.025-.803-.112-.99-.185a1.653 1.653 0 0 1-.614-.399 1.653 1.653 0 0 1-.4-.613c-.072-.187-.16-.47-.183-.99-.025-.562-.03-.73-.03-2.155 0-1.424.005-1.592.03-2.154.024-.52.11-.803.184-.99.096-.25.212-.427.399-.614.187-.187.364-.302.613-.4.188-.072.47-.16.99-.183a29.74 29.74 0 0 1 1.677-.03v.001zm3.325.886a.64.64 0 1 0 0 1.28.64.64 0 0 0 0-1.28zm-5.585 3.487a2.739 2.739 0 1 1 5.478 0 2.739 2.739 0 0 1-5.478 0z" fill="#fff"/><path fill-rule="evenodd" clip-rule="evenodd" d="M10 8.223a1.778 1.778 0 1 1 0 3.555 1.778 1.778 0 0 1 0-3.555z" fill="#fff"/></svg>