<svg width="25" height="25" viewBox="0 0 25 25" fill="none" xmlns="http://www.w3.org/2000/svg" preserveAspectRatio="none"><path d="M12.5 0C5.596 0 0 5.596 0 12.5 0 19.403 5.596 25 12.5 25 19.403 25 25 19.404 25 12.5S19.403 0 12.5 0zm0 23.438c-6.04 0-10.937-4.897-10.937-10.938 0-6.04 4.896-10.937 10.937-10.937 6.04 0 10.938 4.896 10.938 10.937 0 6.04-4.897 10.938-10.938 10.938z" fill="#606266"/><path d="M17.757 16.618l-4.116-4.116 4.093-4.059a.775.775 0 0 0 0-1.105.795.795 0 0 0-1.116 0l-4.087 4.053-4.147-4.148a.786.786 0 0 0-1.116 0 .793.793 0 0 0 0 1.119l4.141 4.142-4.164 4.13a.776.776 0 0 0 0 1.105.795.795 0 0 0 1.116 0l4.16-4.125 4.121 4.122c.308.31.808.31 1.116 0a.793.793 0 0 0 0-1.118z" fill="#606266"/></svg>