<svg width="33" height="33" viewBox="0 0 33 33" fill="none" xmlns="http://www.w3.org/2000/svg" preserveAspectRatio="none"><path d="M4.125 0h17.524l9.288 9.252v21.685c0 1.14-.924 2.063-2.062 2.063H4.125a2.063 2.063 0 0 1-2.063-2.063V2.063A2.064 2.064 0 0 1 4.126 0z" fill="#F2323F"/><path d="M30.908 9.281h-7.19a2.063 2.063 0 0 1-2.062-2.062V.02l9.252 9.26z" fill="#B53629"/><path d="M23.201 15.637c.346 0 .515-.301.515-.593 0-.302-.177-.594-.515-.594h-1.968c-.384 0-.599.318-.599.67v4.836c0 .43.246.67.578.67.33 0 .576-.24.576-.67v-1.328h1.19c.37 0 .554-.302.554-.602 0-.294-.184-.586-.554-.586h-1.19v-1.803h1.413zm-6.65-1.187h-1.44c-.391 0-.668.268-.668.666v4.844c0 .494.399.648.684.648h1.511c1.788 0 2.969-1.176 2.969-2.992-.001-1.92-1.113-3.166-3.056-3.166zm.069 4.964h-.878v-3.77h.791c1.197 0 1.718.803 1.718 1.912 0 1.037-.512 1.858-1.631 1.858zm-5.274-4.964H9.92c-.404 0-.629.266-.629.67v4.836c0 .43.258.67.605.67.346 0 .604-.24.604-.67v-1.412h.894c1.104 0 2.014-.782 2.014-2.039 0-1.23-.878-2.055-2.062-2.055zm-.024 2.96H10.5v-1.825h.822c.508 0 .83.396.83.913 0 .516-.322.912-.83.912z" fill="#fff"/></svg>