<svg width="105" height="105" viewBox="0 0 105 105" fill="none" xmlns="http://www.w3.org/2000/svg" preserveAspectRatio="none"><path d="M52.5 0C23.552 0 0 23.552 0 52.5S23.552 105 52.5 105 105 81.448 105 52.5 81.448 0 52.5 0zm0 100.625c-26.536 0-48.125-21.589-48.125-48.125S25.964 4.375 52.5 4.375s48.125 21.589 48.125 48.125-21.589 48.125-48.125 48.125z" fill="#fff"/><path d="M80.675 61.342a2.178 2.178 0 0 0-2.635 1.621C75.22 74.834 64.72 83.125 52.5 83.125c-12.234 0-22.74-8.303-25.547-20.19a2.2 2.2 0 0 0-2.632-1.627 2.188 2.188 0 0 0-1.628 2.632C25.97 77.811 38.227 87.5 52.5 87.5c14.255 0 26.508-9.673 29.796-23.524a2.185 2.185 0 0 0-1.621-2.634zM35 43.75A4.375 4.375 0 1 0 35 35a4.375 4.375 0 0 0 0 8.75zm35 0A4.375 4.375 0 1 0 70 35a4.375 4.375 0 0 0 0 8.75z" fill="#fff"/></svg>