<svg width="20" height="20" viewBox="0 0 20 20" fill="none" xmlns="http://www.w3.org/2000/svg" preserveAspectRatio="none"><path fill-rule="evenodd" clip-rule="evenodd" d="M10 20c5.523 0 10-4.477 10-10S15.523 0 10 0 0 4.477 0 10s4.477 10 10 10zm-1.833-5.417c.243 0 .354-.108.488-.239l.012-.01 1.201-1.169 2.499 1.846c.46.254.791.123.906-.427l1.64-7.73c.168-.673-.256-.979-.696-.779L4.584 9.79c-.657.264-.653.631-.12.794l2.472.772 5.723-3.61c.27-.164.518-.076.315.104l-4.637 4.185-.17 2.55z" fill="#fff"/></svg>