<svg width="25" height="25" viewBox="0 0 25 25" fill="none" xmlns="http://www.w3.org/2000/svg" preserveAspectRatio="none"><path fill-rule="evenodd" clip-rule="evenodd" d="M12.5 25C19.404 25 25 19.404 25 12.5S19.404 0 12.5 0 0 5.596 0 12.5 5.596 25 12.5 25zm-2.292-6.77c.304 0 .443-.136.611-.3l.014-.013 1.502-1.46 3.123 2.308c.575.317.99.152 1.133-.534l2.05-9.663c.21-.842-.32-1.223-.87-.974l-12.04 4.643c-.822.33-.818.788-.15.992l3.09.965 7.153-4.513c.338-.205.648-.095.393.131l-5.796 5.23-.213 3.187z" fill="#BABDC2"/></svg>